<?xml version="1.0" encoding="UTF-8" ?>
<!DOCTYPE svg PUBLIC "-//W3C//DTD SVG 1.1//EN" "http://www.w3.org/Graphics/SVG/1.1/DTD/svg11.dtd">
<svg width="1182pt" height="474pt" viewBox="0 0 1182 474" version="1.1" xmlns="http://www.w3.org/2000/svg">
<g id="#ffffffff">
<path fill="#ff3d00" opacity="1.00" d=" M 810.38 0.93 C 837.04 0.85 863.70 0.91 890.35 0.90 C 890.35 49.53 890.38 98.16 890.34 146.80 C 902.23 143.39 914.55 141.30 926.94 141.47 C 974.32 141.47 1021.69 141.47 1069.06 141.47 C 1069.09 168.13 1069.07 194.79 1069.07 221.45 C 1022.72 221.46 976.37 221.45 930.03 221.45 C 920.73 221.22 910.58 221.90 903.02 227.96 C 895.45 233.83 892.77 243.85 892.83 253.05 C 892.80 289.05 892.81 325.04 892.82 361.03 C 892.79 369.84 894.66 379.40 901.13 385.85 C 907.30 392.11 916.46 394.06 924.97 394.01 C 971.32 394.02 1017.68 394.01 1064.03 394.02 C 1072.80 394.18 1082.26 393.87 1089.76 388.74 C 1097.53 383.56 1100.91 373.96 1101.28 364.97 C 1101.53 354.97 1101.32 344.97 1101.39 334.98 C 1101.38 223.64 1101.41 112.29 1101.37 0.95 C 1128.03 0.82 1154.69 0.93 1181.35 0.90 C 1181.35 121.59 1181.38 242.29 1181.34 362.98 C 1181.39 381.54 1177.33 400.16 1168.78 416.69 C 1161.29 431.44 1149.95 444.20 1136.16 453.34 C 1116.99 466.36 1093.96 473.34 1070.85 474.00 L 920.35 474.00 C 895.47 473.47 870.49 465.10 851.47 448.82 C 831.08 464.62 805.54 473.33 779.81 474.00 L 629.34 474.00 C 607.20 473.49 585.01 466.91 566.97 453.90 C 540.56 434.87 525.20 403.11 522.31 371.12 C 521.49 361.33 521.97 351.50 521.85 341.69 C 508.65 351.40 493.17 358.03 476.89 360.22 C 465.02 362.10 452.97 361.67 441.00 361.72 C 397.96 361.72 354.93 361.72 311.90 361.72 C 311.89 336.39 311.89 311.07 311.90 285.74 C 359.95 285.72 408.01 285.76 456.06 285.72 C 463.04 285.73 470.26 284.31 476.11 280.33 C 484.12 274.86 489.04 265.54 490.02 255.98 C 490.91 247.54 489.73 238.47 484.75 231.39 C 478.42 222.44 467.44 217.40 456.58 217.47 C 408.39 217.44 360.20 217.45 312.02 217.46 C 304.28 217.43 296.23 219.25 290.11 224.21 C 281.87 230.83 277.64 241.54 277.76 251.98 C 277.74 289.31 277.74 326.64 277.76 363.97 C 277.74 371.59 279.65 379.50 284.59 385.47 C 291.19 393.56 301.72 397.76 312.03 397.69 C 360.07 397.73 408.11 397.69 456.15 397.71 C 456.16 423.14 456.15 448.57 456.15 474.00 L 310.19 474.00 C 283.86 473.07 257.33 464.21 237.35 446.70 C 220.26 431.56 207.77 410.81 203.86 388.20 C 202.27 379.57 201.75 370.79 201.77 362.02 C 201.77 326.35 201.77 290.68 201.76 255.00 C 201.51 243.68 203.11 232.37 205.99 221.44 C 176.31 221.47 146.62 221.45 116.94 221.45 C 107.77 221.26 97.79 222.20 90.46 228.30 C 83.18 234.21 80.65 244.02 80.69 253.04 C 80.65 326.69 80.68 400.35 80.67 474.00 L 0.69 474.00 C 0.69 400.67 0.69 327.34 0.69 254.01 C 0.68 244.32 1.48 234.59 3.60 225.11 C 8.44 204.03 19.49 184.16 35.95 169.95 C 57.69 151.24 86.47 141.34 115.06 141.47 C 228.36 141.47 341.67 141.47 454.98 141.47 C 469.02 141.39 482.96 144.21 496.21 148.72 C 515.12 155.46 532.33 167.45 544.47 183.52 C 555.17 169.54 569.70 158.65 585.79 151.60 C 602.26 144.75 620.17 141.13 638.03 141.47 C 684.69 141.46 731.34 141.50 778.00 141.44 C 778.18 168.11 778.03 194.78 778.07 221.45 C 729.83 221.48 681.59 221.41 633.35 221.48 C 623.82 221.51 613.39 224.47 607.60 232.56 C 601.51 240.70 601.65 251.34 601.81 261.02 C 601.82 294.35 601.80 327.68 601.82 361.01 C 601.79 369.85 603.66 379.44 610.17 385.89 C 616.35 392.13 625.52 394.06 634.02 394.01 C 682.00 394.02 729.99 394.02 777.98 394.01 C 786.52 394.03 795.81 392.28 802.07 386.01 C 808.60 379.54 810.48 369.92 810.39 361.05 C 810.39 241.01 810.40 120.97 810.38 0.93 Z" />
</g>
</svg>
